<svg x="0" y="0" width="750" height="150" viewBox="0 0 350 70" xmlns="http://www.w3.org/2000/svg" xmlns:xlink="http://www.w3.org/1999/xlink" xmlns:fi="http://pattern.flaticon.com/"><rect x="0px" y="0px" width="100%" height="100%" opacity="1" fill="#ffffff"/><defs><g transform="matrix(1.2603188753128052 0 0 1.2603188753128052 58.000003814697266 0.9999991059303284)" id="L1_1"><path d="M17.991,40.976c0,3.662-2.969,6.631-6.631,6.631l0,0c-3.662,0-6.631-2.969-6.631-6.631V6.631C4.729,2.969,7.698,0,11.36,0   l0,0c3.662,0,6.631,2.969,6.631,6.631V40.976z"/><path d="M42.877,40.976c0,3.662-2.969,6.631-6.631,6.631l0,0c-3.662,0-6.631-2.969-6.631-6.631V6.631   C29.616,2.969,32.585,0,36.246,0l0,0c3.662,0,6.631,2.969,6.631,6.631V40.976z"/></g><path d="M231.677,0H45.665C20.45,0,0,20.442,0,45.657v186.021c0,25.207,20.45,45.652,45.665,45.652h186.012   c25.223,0,45.653-20.445,45.653-45.652V45.657C277.338,20.434,256.899,0,231.677,0z" transform="matrix(-0.21634875237941742 0 0 0.21634875237941742 180.9285888671875 0.9999998807907104)" id="L1_3"/><path d="M382.678,226.804L163.73,7.86C158.666,2.792,151.906,0,144.698,0s-13.968,2.792-19.032,7.86l-16.124,16.12    c-10.492,10.504-10.492,27.576,0,38.064L293.398,245.9l-184.06,184.06c-5.064,5.068-7.86,11.824-7.86,19.028    c0,7.212,2.796,13.968,7.86,19.04l16.124,16.116c5.068,5.068,11.824,7.86,19.032,7.86s13.968-2.792,19.032-7.86L382.678,265    c5.076-5.084,7.864-11.872,7.848-19.088C390.542,238.668,387.754,231.884,382.678,226.804z" transform="matrix(0.12195023149251938 0 0 0.12195023149251938 177 1.0000008344650269)" id="L1_8"/><path d="M203.791,99.628L49.307,2.294c-4.567-2.719-10.238-2.266-14.521-2.266   c-17.132,0-17.056,13.227-17.056,16.578v198.94c0,2.833-0.075,16.579,17.056,16.579c4.283,0,9.955,0.451,14.521-2.267   l154.483-97.333c12.68-7.545,10.489-16.449,10.489-16.449S216.471,107.172,203.791,99.628z" transform="matrix(0.25604331493377686 0 0 0.25604331493377686 2.281766414642334 1.2792000770568848)" id="L1_14"/><g transform="matrix(1.2896419763565063 0 0 1.2896419763565063 227.35435485839844 1.3468327522277832)" id="L1_17"><path d="M9.629,44.68c-1.154,1.16-2.895,1.51-4.407,0.885c-1.513-0.623-2.5-2.1-2.5-3.735V4.043c0-1.637,0.987-3.112,2.5-3.736     c1.513-0.625,3.253-0.275,4.407,0.885l17.862,17.951c2.088,2.098,2.088,5.488,0,7.585L9.629,44.68z"/><path d="M38.252,45.975c-2.763,0-5-2.238-5-5V5c0-2.762,2.237-5,5-5c2.762,0,5,2.238,5,5v35.975      C43.252,43.736,41.013,45.975,38.252,45.975z"/></g><g transform="matrix(1.256662130355835 1.5389672797236418e-16 1.5389672797236418e-16 -1.256662130355835 208.11253356933594 41.638702392578125)"><path d="M9.629,44.68c-1.154,1.16-2.895,1.51-4.407,0.885c-1.513-0.623-2.5-2.1-2.5-3.735V4.043c0-1.637,0.987-3.112,2.5-3.736     c1.513-0.625,3.253-0.275,4.407,0.885l17.862,17.951c2.088,2.098,2.088,5.488,0,7.585L9.629,44.68z"/><path d="M38.252,45.975c-2.763,0-5-2.238-5-5V5c0-2.762,2.237-5,5-5c2.762,0,5,2.238,5,5v35.975      C43.252,43.736,41.013,45.975,38.252,45.975z"/></g></defs><g fi:class="KUsePattern"><pattern id="pattern_L1_1" width="350" height="350" patternUnits="userSpaceOnUse"><use xlink:href="#L1_1" x="-350" y="-350"/><use xlink:href="#L1_1" x="0" y="-350"/><use xlink:href="#L1_1" x="350" y="-350"/><use xlink:href="#L1_1" x="-350" y="0"/><use xlink:href="#L1_1" x="0" y="0"/><use xlink:href="#L1_1" x="350" y="0"/><use xlink:href="#L1_1" x="-350" y="350"/><use xlink:href="#L1_1" x="0" y="350"/><use xlink:href="#L1_1" x="350" y="350"/></pattern><rect x="0" y="0" width="100%" height="100%" fill="url(#pattern_L1_1)"/></g><g fi:class="KUsePattern"><pattern id="pattern_L1_3" width="350" height="350" patternUnits="userSpaceOnUse"><use xlink:href="#L1_3" x="-350" y="-350"/><use xlink:href="#L1_3" x="0" y="-350"/><use xlink:href="#L1_3" x="350" y="-350"/><use xlink:href="#L1_3" x="-350" y="0"/><use xlink:href="#L1_3" x="0" y="0"/><use xlink:href="#L1_3" x="350" y="0"/><use xlink:href="#L1_3" x="-350" y="350"/><use xlink:href="#L1_3" x="0" y="350"/><use xlink:href="#L1_3" x="350" y="350"/></pattern><rect x="0" y="0" width="100%" height="100%" fill="url(#pattern_L1_3)"/></g><g fi:class="KUsePattern"><pattern id="pattern_L1_8" width="350" height="350" patternUnits="userSpaceOnUse"><use xlink:href="#L1_8" x="-350" y="-350"/><use xlink:href="#L1_8" x="0" y="-350"/><use xlink:href="#L1_8" x="350" y="-350"/><use xlink:href="#L1_8" x="-350" y="0"/><use xlink:href="#L1_8" x="0" y="0"/><use xlink:href="#L1_8" x="350" y="0"/><use xlink:href="#L1_8" x="-350" y="350"/><use xlink:href="#L1_8" x="0" y="350"/><use xlink:href="#L1_8" x="350" y="350"/></pattern><rect x="0" y="0" width="100%" height="100%" fill="url(#pattern_L1_8)"/></g><g fi:class="KUsePattern"><pattern id="pattern_L1_14" width="350" height="350" patternUnits="userSpaceOnUse"><use xlink:href="#L1_14" x="-350" y="-350"/><use xlink:href="#L1_14" x="0" y="-350"/><use xlink:href="#L1_14" x="350" y="-350"/><use xlink:href="#L1_14" x="-350" y="0"/><use xlink:href="#L1_14" x="0" y="0"/><use xlink:href="#L1_14" x="350" y="0"/><use xlink:href="#L1_14" x="-350" y="350"/><use xlink:href="#L1_14" x="0" y="350"/><use xlink:href="#L1_14" x="350" y="350"/></pattern><rect x="0" y="0" width="100%" height="100%" fill="url(#pattern_L1_14)"/></g><g fi:class="KUsePattern"><pattern id="pattern_L1_17" width="350" height="350" patternUnits="userSpaceOnUse"><use xlink:href="#L1_17" x="-350" y="-350"/><use xlink:href="#L1_17" x="0" y="-350"/><use xlink:href="#L1_17" x="350" y="-350"/><use xlink:href="#L1_17" x="-350" y="0"/><use xlink:href="#L1_17" x="0" y="0"/><use xlink:href="#L1_17" x="350" y="0"/><use xlink:href="#L1_17" x="-350" y="350"/><use xlink:href="#L1_17" x="0" y="350"/><use xlink:href="#L1_17" x="350" y="350"/></pattern><rect x="0" y="0" width="100%" height="100%" fill="url(#pattern_L1_17)"/></g><g fi:class="KUsePattern" transform="matrix(1 0 0 1 20 20)"><pattern id="pattern_UNKNOWN" width="350" height="350" patternUnits="userSpaceOnUse"><use xlink:href="#UNKNOWN" x="-350" y="-350"/><use xlink:href="#UNKNOWN" x="0" y="-350"/><use xlink:href="#UNKNOWN" x="350" y="-350"/><use xlink:href="#UNKNOWN" x="-350" y="0"/><use xlink:href="#UNKNOWN" x="0" y="0"/><use xlink:href="#UNKNOWN" x="350" y="0"/><use xlink:href="#UNKNOWN" x="-350" y="350"/><use xlink:href="#UNKNOWN" x="0" y="350"/><use xlink:href="#UNKNOWN" x="350" y="350"/></pattern><rect x="0" y="0" width="100%" height="100%" fill="url(#pattern_UNKNOWN)"/></g></svg>